<?xml version="1.0" encoding="UTF-8"?>
<svg id="Layer_2" data-name="Layer 2" xmlns="http://www.w3.org/2000/svg" viewBox="0 0 264.17 264.27">
  <defs>
    <style>
      .cls-1 {
        fill: #0fb7a6;
      }

      .cls-2 {
        fill: #036;
      }
    </style>
  </defs>
  <g id="Layer_1-2" data-name="Layer 1">
    <g>
      <path class="cls-2" d="M264.17,158.56v105.72h-52.89v-26.45c-22.07,16.61-49.53,26.45-79.28,26.45C59.1,264.27,0,205.18,0,132.28c0-29.8,9.88-57.3,26.53-79.39C45.59,27.61,73.52,9.41,105.69,2.9v54.42c-30.93,10.86-53.11,40.31-53.11,74.95,0,43.86,35.56,79.41,79.42,79.41,34.65,0,64.11-22.19,74.96-53.13h57.21Z"/>
      <polygon class="cls-1" points="264.17 0 264.17 132.13 211.28 132.13 211.28 52.89 132.11 52.89 132.11 0 264.17 0"/>
    </g>
  </g>
</svg>