<?xml version="1.0" encoding="UTF-8"?>
<svg id="Layer_2" data-name="Layer 2" xmlns="http://www.w3.org/2000/svg" viewBox="0 0 821.2 318.15">
  <g id="Layer_1-2" data-name="Layer 1">
    <g>
      <path d="M291.52,1.44v316.71s52.9,0,52.9,0v-26.45c22.07,16.61,49.53,26.45,79.28,26.45,72.9,0,132-59.1,132-132,0-72.9-59.1-132-132-132-18.81,0-36.7,3.93-52.9,11.02v61.74c14.04-12.55,32.58-20.18,52.9-20.18,43.86,0,79.42,35.56,79.42,79.42s-35.56,79.41-79.42,79.41c-42.32,0-76.9-33.1-79.28-74.82V1.44s-52.9,0-52.9,0Z"/>
      <path d="M264.17,212.43v105.72h-52.89v-26.45c-22.07,16.61-49.53,26.45-79.28,26.45C59.1,318.15,0,259.05,0,186.15c0-29.8,9.88-57.3,26.53-79.39,19.06-25.28,46.99-43.48,79.16-49.99v54.42c-30.93,10.86-53.11,40.31-53.11,74.95,0,43.86,35.56,79.41,79.42,79.41,34.65,0,64.11-22.19,74.96-53.13h57.21Z"/>
      <polygon points="264.17 53.88 264.17 186.01 211.28 186.01 211.28 106.76 132.11 106.76 132.11 53.88 264.17 53.88"/>
      <g>
        <path d="M821.2,103.5v54.49c-8.64,1.78-17.6,2.72-26.76,2.72-5.01,0-9.96-.28-14.84-.83-3.82-.43-7.58-1.02-11.29-1.76-14.45-2.9-28.06-8.16-40.38-15.37-4.37-2.55-8.56-5.35-12.59-8.36-10.2-7.64-19.24-16.73-26.86-26.95-16.36-21.98-26.03-49.22-26.03-78.73,0-9.34.97-18.47,2.82-27.27h50.07v20.22c-.2,2.32-.31,4.67-.31,7.05s.11,4.73.31,7.05c1.18,13.34,5.65,25.74,12.59,36.36,9.52,14.55,23.68,25.79,40.38,31.61,5,1.74,10.22,2.99,15.61,3.71,3.44.45,6.95.69,10.52.69s7.08-.24,10.52-.69c5.62-.74,11.06-2.07,16.24-3.93Z"/>
        <path d="M821.2,260.94v57.21h-26.76c-8.95,0-17.68-.89-26.13-2.59-19.57-3.93-37.58-12.19-52.98-23.73-32.11-24.08-52.89-62.45-52.89-105.68v-26.27h52.89v33.32c2.78,31.61,24.08,57.9,52.98,67.97,8.18,2.85,16.98,4.4,26.13,4.4s18.4-1.63,26.76-4.63Z"/>
      </g>
      <rect x="582.74" y="80.54" width="52.9" height="237.61"/>
      <path d="M582.74,0v52.66s.23,0,.23,0c29.08,0,52.66-23.58,52.66-52.66h-52.9Z"/>
    </g>
  </g>
</svg>